<!-- Generator: Adobe Illustrator 17.0.0, SVG Export Plug-In  -->
<svg version="1.1"
	 xmlns="http://www.w3.org/2000/svg" xmlns:xlink="http://www.w3.org/1999/xlink" xmlns:a="http://ns.adobe.com/AdobeSVGViewerExtensions/3.0/"
	 x="0px" y="0px" width="245.876px" height="139.548px" viewBox="0 0 245.876 139.548" enable-background="new 0 0 245.876 139.548"
	 xml:space="preserve">
<defs>
</defs>
<g>
	<g>
		<g>
			<g>
				<path fill="#FFFFFF" d="M6.249,90.735c-1.519,0.145-3.036,0.291-4.554,0.441c-0.416,0.042-0.739,0.03-0.97-0.033
					c-0.231-0.063-0.397-0.202-0.5-0.416c-0.102-0.21-0.166-0.527-0.189-0.94C0.013,89.375,0,88.849,0,88.207
					c0-0.638,0.012-1.162,0.035-1.569c0.024-0.407,0.087-0.738,0.188-0.982c0.101-0.246,0.265-0.425,0.493-0.537
					c0.226-0.111,0.544-0.191,0.955-0.238c2.786-0.313,5.571-0.613,8.358-0.907c0.23-0.024,0.346-0.036,0.576-0.061
					c3.132-0.324,6.264-0.635,9.397-0.939c0.454-0.044,0.812-0.033,1.068,0.031c0.256,0.065,0.448,0.213,0.578,0.446
					c0.128,0.229,0.211,0.56,0.247,0.979c0.036,0.419,0.063,0.964,0.078,1.628c0.015,0.669,0.015,1.218-0.002,1.654
					c-0.017,0.434-0.083,0.778-0.201,1.018c-0.119,0.244-0.304,0.423-0.556,0.534c-0.252,0.111-0.608,0.186-1.063,0.225
					c-1.621,0.139-3.243,0.278-4.864,0.423c-0.009,15.723-0.033,31.446-0.064,47.17c-0.008,0.438-0.048,0.79-0.124,1.054
					c-0.073,0.261-0.234,0.474-0.478,0.626c-0.242,0.152-0.61,0.258-1.094,0.311c-0.483,0.054-1.134,0.086-1.946,0.086
					c-0.813,0-1.458-0.021-1.935-0.065c-0.479-0.042-0.847-0.143-1.106-0.293c-0.255-0.149-0.423-0.371-0.499-0.665
					c-0.073-0.29-0.124-0.687-0.147-1.185C7.327,121.545,6.775,106.14,6.249,90.735z"/>
				<path fill="#FFFFFF" d="M26.083,85.118c0.058-0.631,0.167-1.163,0.329-1.581c0.162-0.419,0.47-0.764,0.923-1.029
					c0.452-0.265,1.114-0.477,1.981-0.636c0.867-0.158,2.047-0.308,3.545-0.441c1.479-0.133,2.665-0.197,3.55-0.194
					c0.884,0.002,1.567,0.096,2.039,0.282c0.472,0.188,0.796,0.482,0.969,0.879c0.172,0.397,0.309,0.918,0.411,1.549
					c2.721,17.473,5.328,34.963,7.802,52.474c0.077,0.626,0.075,1.117-0.001,1.479c-0.075,0.357-0.251,0.633-0.522,0.817
					c-0.271,0.183-0.648,0.3-1.126,0.347c-0.477,0.046-1.06,0.071-1.75,0.071c-0.849,0.001-1.525-0.022-2.03-0.068
					c-0.505-0.046-0.903-0.161-1.186-0.342c-0.286-0.183-0.498-0.454-0.635-0.808c-0.138-0.356-0.247-0.842-0.327-1.461
					c-0.403-2.731-0.809-5.462-1.218-8.193c-3.389,0.06-6.778,0.12-10.167,0.181c-0.306,2.69-0.61,5.382-0.915,8.072
					c-0.075,0.608-0.17,1.085-0.287,1.435c-0.116,0.348-0.315,0.614-0.592,0.793c-0.277,0.178-0.67,0.29-1.172,0.336
					c-0.504,0.045-1.18,0.068-2.029,0.068c-0.689,0.003-1.269-0.021-1.738-0.066c-0.469-0.044-0.85-0.154-1.134-0.33
					c-0.287-0.177-0.479-0.439-0.575-0.782c-0.097-0.345-0.107-0.814-0.032-1.414C22.169,119.41,24.11,102.262,26.083,85.118z
					 M37.848,121.77c-1.531-10.028-3.092-20.052-4.68-30.07c-0.098,0.007-0.147,0.011-0.246,0.02
					c-1.186,10.093-2.353,20.189-3.511,30.286C32.224,121.926,35.036,121.849,37.848,121.77z"/>
				<path fill="#FFFFFF" d="M48.192,83.065c-0.022-0.604,0.04-1.098,0.188-1.481c0.146-0.382,0.414-0.698,0.793-0.938
					c0.381-0.242,0.905-0.434,1.569-0.571c0.663-0.139,1.511-0.25,2.54-0.337c0.937-0.079,1.723-0.117,2.36-0.111
					c0.636,0.006,1.155,0.06,1.557,0.17c0.402,0.108,0.711,0.285,0.924,0.524c0.215,0.242,0.367,0.548,0.459,0.917
					c2.575,9.906,5.055,19.836,7.451,29.787c0.119-0.005,0.18-0.008,0.299-0.012c2.62-10.355,5.265-20.704,7.92-31.051
					c0.079-0.391,0.223-0.728,0.428-1.011c0.205-0.28,0.504-0.512,0.892-0.689c0.387-0.179,0.875-0.321,1.461-0.433
					c0.587-0.11,1.309-0.2,2.165-0.273c1.073-0.092,1.933-0.125,2.582-0.095c0.649,0.031,1.152,0.142,1.506,0.329
					c0.353,0.188,0.587,0.474,0.696,0.854c0.109,0.381,0.148,0.89,0.117,1.527c-0.774,18.814-1.548,37.629-2.314,56.444
					c-0.029,0.563-0.083,1.01-0.16,1.337c-0.078,0.332-0.24,0.582-0.479,0.751c-0.242,0.171-0.585,0.283-1.027,0.332
					c-0.443,0.049-1.044,0.074-1.806,0.075c-0.742,0-1.338-0.023-1.789-0.072c-0.45-0.048-0.789-0.16-1.015-0.328
					c-0.224-0.166-0.377-0.414-0.452-0.743c-0.074-0.324-0.106-0.767-0.097-1.323c0.284-13.021,0.571-26.041,0.858-39.063
					c-0.142,0.008-0.212,0.013-0.354,0.021c-2.227,9.691-4.449,19.381-6.646,29.078c-0.113,0.46-0.23,0.833-0.349,1.12
					c-0.119,0.29-0.291,0.515-0.504,0.672c-0.215,0.157-0.509,0.267-0.872,0.318c-0.365,0.051-0.854,0.087-1.46,0.094
					c-0.535,0.009-0.963-0.013-1.284-0.067c-0.32-0.055-0.576-0.159-0.76-0.308c-0.187-0.151-0.333-0.366-0.437-0.637
					c-0.105-0.272-0.209-0.631-0.313-1.083c-1.947-9.382-3.954-18.75-6.03-28.105c-0.143,0.009-0.214,0.014-0.358,0.021
					c0.022,12.672,0.04,25.344,0.063,38.016c-0.002,0.541-0.044,0.973-0.123,1.289c-0.081,0.319-0.242,0.561-0.479,0.724
					c-0.239,0.163-0.581,0.273-1.023,0.321c-0.441,0.046-1.043,0.071-1.803,0.071c-0.76,0.001-1.362-0.022-1.804-0.069
					c-0.442-0.047-0.784-0.154-1.023-0.315c-0.237-0.162-0.395-0.4-0.467-0.717c-0.072-0.313-0.118-0.738-0.139-1.273
					C49.181,118.856,48.696,100.96,48.192,83.065z"/>
				<path fill="#FFFFFF" d="M86.519,88.804c0.086-1.758,0.224-3.413,0.771-5.101c0.489-1.512,1.285-2.923,2.346-4.102
					c1.152-1.278,2.526-2.144,4.004-2.88c1.712-0.854,3.765-1.253,5.715-1.438c1.821-0.174,3.727-0.137,5.496,0.401
					c1.384,0.422,2.677,1.178,3.651,2.245c0.985,1.082,1.66,2.436,2.042,3.851c0.464,1.719,0.551,3.408,0.594,5.18
					c-0.233,13.499-0.485,26.998-0.755,40.496c-0.032,1.589-0.275,3.178-0.74,4.696c-0.433,1.416-1.152,2.751-2.134,3.859
					c-1.011,1.143-2.312,2.017-3.724,2.591c-1.73,0.705-3.636,0.944-5.487,0.944c-1.843,0-3.742-0.236-5.47-0.93
					c-1.39-0.557-2.674-1.401-3.674-2.518c-0.941-1.05-1.628-2.293-2.057-3.718c-0.441-1.465-0.65-2.997-0.648-4.527
					C86.474,114.839,86.498,101.822,86.519,88.804z M94.248,128.061c-0.038,1.045,0.013,1.917,0.149,2.608
					c0.137,0.695,0.373,1.245,0.709,1.654c0.334,0.406,0.775,0.697,1.318,0.866c0.539,0.168,1.201,0.249,1.976,0.243
					c0.774-0.007,1.437-0.1,1.983-0.278c0.545-0.179,0.996-0.482,1.342-0.898c0.35-0.419,0.6-0.981,0.759-1.688
					c0.157-0.702,0.234-1.587,0.229-2.643c-0.079-13.819-0.151-27.639-0.209-41.457c-0.002-1.104-0.074-1.977-0.215-2.617
					c-0.142-0.643-0.348-1.129-0.619-1.458c-0.269-0.327-0.605-0.529-1.008-0.608c-0.403-0.079-0.872-0.095-1.414-0.049
					c-0.54,0.045-1.017,0.14-1.428,0.286c-0.411,0.147-0.762,0.406-1.05,0.776c-0.288,0.373-0.516,0.89-0.683,1.551
					c-0.166,0.659-0.269,1.535-0.307,2.633C95.274,100.675,94.767,114.369,94.248,128.061z"/>
			</g>
			<g>
				<path fill="#FFFFFF" d="M114.63,112.584c0.005-0.758,0.07-1.376,0.195-1.84c0.125-0.465,0.353-0.813,0.685-1.045
					c0.33-0.233,0.777-0.375,1.34-0.434c0.563-0.06,1.274-0.074,2.131-0.046c0.97,0.031,1.754,0.094,2.353,0.19
					c0.6,0.095,1.059,0.267,1.378,0.518c0.317,0.251,0.526,0.608,0.628,1.077c0.1,0.468,0.132,1.082,0.098,1.833
					c-0.19,5.029-0.379,10.059-0.566,15.088c-0.042,1.056-0.023,1.94,0.052,2.643c0.075,0.706,0.218,1.265,0.433,1.684
					c0.214,0.416,0.494,0.717,0.837,0.894c0.34,0.176,0.771,0.267,1.29,0.27c0.516,0.004,0.957-0.082,1.314-0.253
					c0.36-0.171,0.656-0.467,0.879-0.876c0.225-0.412,0.391-0.968,0.501-1.668c0.108-0.696,0.167-1.574,0.179-2.624
					c0.136-16.414,0.251-32.829,0.354-49.244c-0.001-0.652,0.059-1.176,0.183-1.567c0.124-0.392,0.376-0.69,0.746-0.891
					c0.373-0.201,0.899-0.325,1.573-0.369c0.676-0.044,1.571-0.027,2.679,0.046c1.088,0.07,1.958,0.17,2.612,0.3
					c0.655,0.132,1.154,0.321,1.499,0.567c0.345,0.244,0.571,0.57,0.675,0.975c0.105,0.401,0.137,0.926,0.097,1.569
					c-0.874,16.126-1.737,32.252-2.599,48.378c-0.084,1.547-0.341,3.086-0.792,4.568c-0.437,1.438-1.091,2.688-1.958,3.752
					c-0.868,1.066-1.97,1.929-3.292,2.536c-1.55,0.713-3.207,0.934-4.801,0.934c-1.581,0.001-3.22-0.216-4.758-0.928
					c-1.313-0.608-2.396-1.475-3.237-2.566c-0.84-1.091-1.464-2.368-1.862-3.828c-0.415-1.521-0.622-3.097-0.642-4.672
					C114.767,122.563,114.701,117.574,114.63,112.584z"/>
				<path fill="#FFFFFF" d="M141.106,79.583c0.004-0.643,0.067-1.159,0.188-1.546c0.12-0.388,0.361-0.683,0.714-0.881
					c0.354-0.198,0.858-0.32,1.506-0.364c0.65-0.044,1.494-0.029,2.528,0.039c1.035,0.068,1.861,0.166,2.484,0.294
					c0.623,0.128,1.099,0.315,1.428,0.558c0.327,0.24,0.542,0.562,0.642,0.96c0.099,0.397,0.13,0.913,0.092,1.549
					c-0.84,16.018-1.685,32.036-2.53,48.055c-0.053,1.026-0.015,1.887,0.11,2.57c0.127,0.686,0.355,1.234,0.685,1.64
					c0.329,0.405,0.767,0.698,1.307,0.871c0.539,0.173,1.198,0.262,1.975,0.267c0.775,0.005,1.441-0.076,1.991-0.241
					c0.549-0.165,1.005-0.45,1.359-0.847c0.354-0.398,0.617-0.937,0.787-1.615c0.169-0.674,0.261-1.524,0.273-2.543
					c0.172-15.913,0.349-31.825,0.538-47.738c0.002-0.633,0.06-1.14,0.173-1.52c0.113-0.38,0.341-0.671,0.675-0.865
					c0.336-0.195,0.809-0.316,1.417-0.36c0.609-0.043,1.417-0.028,2.421,0.042c0.988,0.068,1.778,0.164,2.377,0.291
					c0.597,0.126,1.056,0.311,1.374,0.549c0.316,0.236,0.529,0.554,0.627,0.944c0.1,0.391,0.134,0.898,0.104,1.523
					c-0.646,15.636-1.302,31.269-1.977,46.905c-0.066,1.506-0.341,3.004-0.841,4.427c-0.49,1.395-1.229,2.609-2.216,3.638
					c-1.049,1.091-2.364,1.915-3.774,2.46c-1.744,0.674-3.649,0.906-5.503,0.906c-1.84,0.001-3.734-0.229-5.458-0.917
					c-1.381-0.552-2.655-1.396-3.637-2.516c-0.927-1.056-1.595-2.305-2.004-3.741c-0.421-1.477-0.598-3.018-0.558-4.554
					C140.625,111.742,140.869,95.663,141.106,79.583z"/>
				<path fill="#FFFFFF" d="M168.291,81.414c-0.005-0.624,0.038-1.126,0.128-1.501c0.089-0.376,0.275-0.665,0.549-0.859
					c0.276-0.195,0.676-0.317,1.196-0.364c0.521-0.049,1.217-0.038,2.088,0.024c0.641,0.046,1.186,0.11,1.638,0.191
					c0.451,0.08,0.815,0.193,1.093,0.346c0.276,0.151,0.495,0.34,0.646,0.562c0.153,0.225,0.254,0.516,0.3,0.878
					c2.931,12.165,6.01,24.29,9.254,36.373c0.082,0.003,0.124,0.004,0.206,0.005c-0.432-11.517-0.841-23.035-1.237-34.554
					c-0.017-0.613,0.02-1.104,0.111-1.471c0.09-0.367,0.278-0.65,0.564-0.838c0.286-0.188,0.696-0.306,1.229-0.347
					c0.534-0.043,1.234-0.028,2.105,0.038c0.97,0.075,1.75,0.175,2.345,0.303c0.592,0.128,1.044,0.311,1.351,0.542
					c0.306,0.23,0.513,0.539,0.617,0.918c0.103,0.377,0.15,0.868,0.141,1.472c-0.164,17.526-0.351,35.052-0.558,52.577
					c-0.012,0.534-0.052,1.011-0.118,1.433c-0.066,0.418-0.204,0.778-0.413,1.082c-0.208,0.3-0.521,0.53-0.934,0.679
					c-0.412,0.15-0.965,0.227-1.654,0.227c-0.671,0-1.22-0.06-1.645-0.178c-0.425-0.119-0.735-0.409-0.93-0.877
					c-0.021,0.027-0.032,0.042-0.053,0.07c-3.632-12.23-7.083-24.512-10.361-36.842c-0.111-0.005-0.167-0.008-0.278-0.013
					c-0.188,11.804-0.375,23.606-0.57,35.409c-0.024,0.546-0.072,0.98-0.146,1.3c-0.075,0.321-0.221,0.564-0.432,0.729
					c-0.212,0.165-0.528,0.274-0.944,0.322c-0.416,0.047-0.968,0.071-1.657,0.071c-0.795-0.001-1.428-0.024-1.894-0.074
					c-0.469-0.047-0.825-0.159-1.068-0.324c-0.242-0.166-0.402-0.41-0.477-0.735c-0.073-0.32-0.115-0.76-0.123-1.31
					C168.314,118.256,168.291,99.835,168.291,81.414z"/>
				<path fill="#FFFFFF" d="M201.096,87.716c-1.573-0.112-3.146-0.224-4.718-0.335c-0.437-0.03-0.775-0.101-1.019-0.21
					c-0.244-0.111-0.422-0.291-0.534-0.543c-0.111-0.248-0.185-0.603-0.215-1.055c-0.032-0.453-0.053-1.025-0.064-1.722
					c-0.011-0.691-0.006-1.259,0.013-1.696c0.018-0.436,0.08-0.782,0.184-1.025c0.104-0.246,0.275-0.406,0.514-0.479
					c0.239-0.075,0.575-0.095,1.007-0.06c2.878,0.23,5.756,0.465,8.635,0.702c0.235,0.02,0.352,0.029,0.586,0.049
					c3.153,0.264,6.306,0.531,9.46,0.802c0.455,0.039,0.812,0.116,1.069,0.229c0.257,0.111,0.451,0.296,0.582,0.553
					c0.13,0.256,0.216,0.601,0.255,1.029c0.041,0.428,0.07,0.979,0.09,1.648c0.02,0.674,0.023,1.227,0.011,1.661
					c-0.013,0.435-0.079,0.768-0.195,0.992c-0.117,0.226-0.301,0.374-0.552,0.445c-0.253,0.07-0.607,0.089-1.062,0.054
					c-1.628-0.124-3.254-0.247-4.88-0.368c0.111,16.202,0.212,32.405,0.303,48.607c-0.006,0.453-0.043,0.816-0.115,1.09
					c-0.072,0.27-0.23,0.49-0.474,0.646c-0.241,0.156-0.607,0.267-1.091,0.319c-0.483,0.056-1.134,0.088-1.946,0.088
					c-0.813-0.002-1.458-0.025-1.936-0.07c-0.479-0.047-0.85-0.153-1.108-0.313c-0.257-0.158-0.428-0.393-0.506-0.704
					c-0.077-0.309-0.131-0.728-0.16-1.255C202.501,120.439,201.791,104.078,201.096,87.716z"/>
				<path fill="#FFFFFF" d="M218.813,93.43c-0.09-1.527,0.06-3.083,0.529-4.536c0.434-1.341,1.169-2.477,2.191-3.354
					c1.141-0.979,2.58-1.593,4.045-1.915c2.045-0.45,4.157-0.429,6.173-0.243c2.122,0.195,4.374,0.57,6.357,1.39
					c1.596,0.659,3.122,1.434,4.46,2.619c1.118,0.991,2.014,2.238,2.56,3.632c0.55,1.409,0.787,2.936,0.742,4.45
					c-0.286,11.304-0.547,22.609-0.788,33.915c-0.034,1.389-0.285,2.697-0.745,3.931c-0.463,1.238-1.177,2.319-2.139,3.229
					c-1.045,0.991-2.337,1.714-3.699,2.189c-1.748,0.609-3.629,0.811-5.464,0.811c-1.852,0-3.749-0.208-5.51-0.826
					c-1.401-0.492-2.725-1.245-3.795-2.271c-0.992-0.953-1.738-2.088-2.237-3.385c-0.498-1.296-0.788-2.67-0.866-4.121
					C220.022,117.108,219.418,105.269,218.813,93.43z M228.495,129.375c0.007,0.924,0.096,1.698,0.262,2.314
					c0.167,0.618,0.429,1.111,0.786,1.48c0.355,0.365,0.812,0.629,1.367,0.787c0.552,0.158,1.223,0.24,2.005,0.248
					c0.782,0.007,1.452-0.063,1.998-0.208c0.547-0.146,0.995-0.399,1.334-0.753c0.341-0.356,0.582-0.836,0.724-1.442
					c0.142-0.602,0.197-1.362,0.163-2.273c-0.468-11.953-0.95-23.906-1.44-35.856c-0.037-0.958-0.146-1.725-0.327-2.304
					c-0.181-0.579-0.431-1.036-0.748-1.367c-0.316-0.33-0.705-0.563-1.158-0.7c-0.454-0.137-0.982-0.228-1.58-0.278
					c-0.6-0.051-1.12-0.047-1.563,0.017c-0.444,0.062-0.816,0.233-1.112,0.514c-0.297,0.283-0.52,0.706-0.671,1.264
					c-0.151,0.559-0.223,1.32-0.216,2.286C228.37,105.194,228.429,117.285,228.495,129.375z"/>
			</g>
		</g>
	</g>
	<g>
		<g>
			<path fill="#F58720" d="M136.597,39.166L118.043,2.062c-1.377-2.751-3.625-2.749-4.996,0.003L104.8,18.62l11.256,16.774
				c2.286,3.407,1.939,8.472-0.79,11.534l-8.739,9.807l4.837,4.206c2.323,2.019,6.121,2.019,8.442,0l15.072-13.103
				C137.198,45.82,137.973,41.918,136.597,39.166z"/>
		</g>
		<path fill="#E02047" d="M158.659,42.07L145.006,2.895c-1.013-2.904-3.244-3.191-4.955-0.635l-11.127,16.599l9.658,19.314
			c1.835,3.669,0.847,8.65-2.248,11.339l-8.573,7.452l3.086,3.471c2.043,2.299,5.81,2.785,8.372,1.08l16.625-11.065
			C158.403,48.746,159.669,44.975,158.659,42.07z"/>
		<g>
			<path fill="#30BAA6" d="M72.347,42.058c-1.011,2.905,0.256,6.68,2.816,8.387l16.611,11.083c2.559,1.708,6.328,1.225,8.374-1.072
				l13.286-14.911c2.046-2.295,2.318-6.266,0.605-8.819L90.922,2.278c-1.713-2.554-3.944-2.267-4.955,0.638L72.347,42.058z"/>
		</g>
	</g>
</g>
</svg>
