<svg xmlns="http://www.w3.org/2000/svg" width="78.242" height="79.509" viewBox="0 0 78.242 79.509">
  <g id="Logotipo" transform="translate(-905 -33.142)">
    <path id="Caminho_1" data-name="Caminho 1" d="M39.121,117.376a38.1,38.1,0,0,1-7.869-.814,37.166,37.166,0,0,1-7.327-2.261,41.1,41.1,0,0,1-6.648-3.618,36.633,36.633,0,0,1-5.789-4.794A39.275,39.275,0,0,1,6.694,100.1a41.1,41.1,0,0,1-3.618-6.648A38.123,38.123,0,0,1,.814,86.125a38.443,38.443,0,0,1,0-15.739,1.438,1.438,0,0,1,1.719-1.131,1.438,1.438,0,0,1,1.131,1.719A35.874,35.874,0,0,0,5.789,92.321a36.9,36.9,0,0,0,3.347,6.151,35.6,35.6,0,0,0,4.432,5.337,38.557,38.557,0,0,0,5.337,4.432,35.19,35.19,0,0,0,6.151,3.347,39.352,39.352,0,0,0,6.784,2.126,35.874,35.874,0,0,0,21.347-2.126,36.9,36.9,0,0,0,6.151-3.347,35.6,35.6,0,0,0,5.337-4.432,38.557,38.557,0,0,0,4.432-5.337,35.191,35.191,0,0,0,3.347-6.151,39.351,39.351,0,0,0,2.126-6.784,37,37,0,0,0,0-14.563,1.455,1.455,0,0,1,2.849-.588,38.443,38.443,0,0,1,0,15.739,37.166,37.166,0,0,1-2.261,7.327,41.1,41.1,0,0,1-3.618,6.648,36.633,36.633,0,0,1-4.794,5.789,39.274,39.274,0,0,1-5.789,4.794,41.1,41.1,0,0,1-6.648,3.618,39.75,39.75,0,0,1-15.2,3.075" transform="translate(905 -4.726)" fill="#fddb3c"/>
    <path id="Caminho_2" data-name="Caminho 2" d="M5.4,50.536c-.678-.317-1.131-.181-1.4.407l-.317.633,2.035.9.271-.633c.271-.588.09-.995-.588-1.312m.362-.814a1.674,1.674,0,0,1,.995,2.442l-.271.633,1.9.859-.362.769L2.6,51.984l.633-1.357a1.734,1.734,0,0,1,2.533-.9" transform="translate(903.576 6.079)" fill="#fff"/>
    <path id="Caminho_3" data-name="Caminho 3" d="M10.685,42.736l.362-.543c.317-.5.136-.995-.452-1.357a.919.919,0,0,0-1.4.226l-.362.588Zm.995,0-.271.452,1.854,1.131-.452.724L7.7,41.922l.814-1.312a1.675,1.675,0,0,1,2.533-.543,1.825,1.825,0,0,1,.995,1.854l2.623.09-.5.814Z" transform="translate(900.782 11.436)" fill="#fff"/>
    <path id="Caminho_4" data-name="Caminho 4" d="M19.841,32.566l-1.673-1.4q-.882-.746-1.492,0c-.407.5-.271.995.317,1.447l1.673,1.4q.882.746,1.492,0c.362-.5.226-.995-.317-1.447m-1.764,2.08-1.673-1.4a1.759,1.759,0,0,1-.362-2.668,1.805,1.805,0,0,1,2.714-.136l1.673,1.4a1.836,1.836,0,1,1-2.352,2.8" transform="translate(896.465 16.812)" fill="#fff"/>
    <path id="Caminho_5" data-name="Caminho 5" d="M26.016,26.184,24.387,24.42a1.731,1.731,0,1,1,2.533-2.352l-.633.588c-.5-.5-.9-.5-1.312-.136s-.407.814.045,1.357l1.628,1.764c.5.543.95.543,1.357.181a.874.874,0,0,0,0-1.357l-.5-.588-.678.633-.5-.543,1.312-1.221,1.04,1.131a1.677,1.677,0,0,1-.045,2.533,1.757,1.757,0,0,1-2.623-.226" transform="translate(891.965 21.476)" fill="#fff"/>
    <path id="Caminho_6" data-name="Caminho 6" d="M34.087,17.5l.543-.362a.892.892,0,0,0,.136-1.4c-.407-.588-.859-.678-1.357-.362l-.543.407Zm.9.362-.452.317,1.221,1.764-.724.5L31.6,15.554l1.266-.9a1.684,1.684,0,0,1,2.533.5,1.726,1.726,0,0,1,.181,2.08l2.352,1.131-.724.588Z" transform="translate(887.692 25.367)" fill="#fff"/>
    <path id="Caminho_7" data-name="Caminho 7" d="M46.5,11.992l-1.085-1.221a12.138,12.138,0,0,1-.769-1.04H44.6c.09.317.317.859.407,1.221l.407,1.583Zm.5.633-1.357.724.317,1.176-.814.407L43.7,9.007l.814-.407,4.07,4.568-.769.407Z" transform="translate(881.064 28.478)" fill="#fff"/>
    <path id="Caminho_8" data-name="Caminho 8" d="M56.787,1.9l1.9,5.608-.769.317-.724-2.216c-.181-.633-.407-1.221-.543-1.854h-.045c0,.5-.045,1.085-.045,1.673l-.045,1.447-.814.271-.9-1.131c-.362-.452-.724-.9-1.04-1.312l-.045.045c.226.588.452,1.176.678,1.809l.769,2.216-.814.271L52.4,3.438l.814-.271,1.764,1.945a11.976,11.976,0,0,1,.769.995h.045c0-.271,0-.9.045-1.266l.181-2.623Z" transform="translate(876.299 32.147)" fill="#fff"/>
    <path id="Caminho_9" data-name="Caminho 9" d="M70.771,3.789,70.138,2.3c-.136-.362-.362-.9-.452-1.221H69.64a12.653,12.653,0,0,1,0,1.312l-.045,1.628Zm.317.769L69.55,4.83,69.5,6.051l-.9.136L69.052.081l.9-.181,2.487,5.608-.859.136Z" transform="translate(867.426 33.242)" fill="#fff"/>
    <path id="Caminho_10" data-name="Caminho 10" d="M84.559,7.166q.543,0,.543-.678V5.131q0-.678-.543-.678H84.2V7.166ZM83.7,4h.814c.633,0,.995.407,1.04,1.131V6.487c0,.724-.362,1.131-.995,1.131h-.814Z" transform="translate(859.155 30.997)" fill="#fff"/>
    <path id="Caminho_11" data-name="Caminho 11" d="M92.064,7.475l-.045.5L90.3,7.837,90.526,4.4l1.673.09v.5L90.978,4.9l-.045.995,1.085.09-.045.452-1.085-.09-.09,1.04Z" transform="translate(855.54 30.778)" fill="#fff"/>
    <path id="Caminho_12" data-name="Caminho 12" d="M107.26,1.512l-1.538,5.744-.814-.226.588-2.261c.181-.633.362-1.266.543-1.854l-.045-.045c-.271.407-.633.9-.95,1.357L104.185,5.4l-.814-.226-.136-1.447c-.045-.588-.136-1.176-.181-1.673h-.045c-.136.588-.271,1.221-.407,1.854l-.588,2.261-.814-.226L102.738.2l.859.226L103.959,3c.045.362.09.95.136,1.266h.045c.181-.226.5-.724.724-1.04l1.583-2.08Z" transform="translate(849.569 33.078)" fill="#fff"/>
    <path id="Caminho_13" data-name="Caminho 13" d="M117.575,10.925l-.317.724L114.5,10.472,116.852,5l2.668,1.176L119.2,6.9l-1.854-.814-.724,1.583,1.764.769-.317.724-1.764-.769-.724,1.673Z" transform="translate(842.285 30.449)" fill="#fff"/>
    <path id="Caminho_14" data-name="Caminho 14" d="M129.306,11.654,126.23,16.72l-.724-.452.362-3.166c.09-.452.181-1.131.271-1.538h-.045c-.271.543-.678,1.312-.995,1.809l-1.176,1.945-.724-.452L126.275,9.8l.724.452-.407,3.3a11.377,11.377,0,0,1-.226,1.4h.045a16.182,16.182,0,0,1,.95-1.764l1.221-1.99Z" transform="translate(837.52 27.819)" fill="#fff"/>
    <path id="Caminho_15" data-name="Caminho 15" d="M138.884,19.014l-.995-.769-3.211,4.025L134,21.727l3.211-4.025-.95-.769.5-.633,2.623,2.08Z" transform="translate(831.604 24.26)" fill="#fff"/>
    <path id="Caminho_16" data-name="Caminho 16" d="M143.327,29.066l1.583-1.492a.976.976,0,0,0,.181-1.492q-.678-.678-1.492.136l-1.583,1.492c-.543.5-.633,1.04-.181,1.492s.95.362,1.492-.136m-1.9-1.99,1.583-1.492a1.832,1.832,0,1,1,2.533,2.623L143.96,29.7a1.832,1.832,0,1,1-2.533-2.623" transform="translate(827.931 19.544)" fill="#fff"/>
    <path id="Caminho_17" data-name="Caminho 17" d="M149.794,35.487l.407.543c.362.5.859.5,1.447.09s.678-.859.317-1.357l-.407-.543Zm-.362.9-.317-.452L147.4,37.206l-.5-.678L151.694,33l.9,1.221a1.651,1.651,0,0,1-.452,2.533,1.811,1.811,0,0,1-2.08.226l-1.085,2.4-.543-.769Z" transform="translate(824.538 15.113)" fill="#fff"/>
    <rect id="Retângulo_1" data-name="Retângulo 1" width="5.925" height="0.859" transform="translate(974.115 55.542) rotate(-30.324)" fill="#fff"/>
    <path id="Caminho_18" data-name="Caminho 18" d="M157.949,53.323l1.312-.995c.317-.226.814-.543,1.085-.724v-.045a8.625,8.625,0,0,1-1.266.317l-1.583.317Zm-.633.5-.633-1.447-1.221.271-.362-.814,6.015-1.131.407.859-4.839,3.8-.362-.814Z" transform="translate(820.047 5.417)" fill="#fff"/>
    <path id="Caminho_19" data-name="Caminho 19" d="M51.445,38.306a3.075,3.075,0,1,0,3.075,3.075,3.079,3.079,0,0,0-3.075-3.075m0,9.679a6.6,6.6,0,1,1,6.6-6.6,6.611,6.611,0,0,1-6.6,6.6m9.679-2.261a2.647,2.647,0,0,1,.588.09A1.838,1.838,0,0,1,62.8,46.9l7.96,23.834a24.658,24.658,0,0,0,3.98-6.287,25.463,25.463,0,1,0-46.584,0,25.961,25.961,0,0,0,3.98,6.287L40.093,46.9a1.727,1.727,0,0,1,1.085-1.085,1.694,1.694,0,0,1,1.538.181l8.729,5.472,8.729-5.472a1.9,1.9,0,0,1,.95-.271M69.988,75.8a1.7,1.7,0,0,1-1.673-1.176L60.174,50.156,52.35,54.995a1.72,1.72,0,0,1-1.854,0L42.716,50.11,34.576,74.578a1.713,1.713,0,0,1-1.221,1.131,1.783,1.783,0,0,1-1.628-.407A28.956,28.956,0,0,1,22.5,54.09a28.99,28.99,0,0,1,57.981,0A28.956,28.956,0,0,1,71.254,75.3a2.141,2.141,0,0,1-1.266.5" transform="translate(892.676 19.439)" fill="#fff"/>
    <path id="Caminho_20" data-name="Caminho 20" d="M68.644,100.882a1.9,1.9,0,1,0,1.9,1.9,1.941,1.941,0,0,0-1.9-1.9m0,7.282a5.382,5.382,0,1,1,5.382-5.382,5.366,5.366,0,0,1-5.382,5.382m-10.9,8.593a25.342,25.342,0,0,0,21.709,0l-2.171-6.467L69.5,115.174a1.72,1.72,0,0,1-1.854,0L59.87,110.29Zm10.9,5.925A28.879,28.879,0,0,1,54.8,119.154a1.749,1.749,0,0,1-.814-2.08l3.347-10a1.727,1.727,0,0,1,1.085-1.085,1.694,1.694,0,0,1,1.538.181l8.729,5.472,8.729-5.472a1.768,1.768,0,0,1,2.623.9l3.347,10a1.749,1.749,0,0,1-.814,2.08,29.5,29.5,0,0,1-13.93,3.528" transform="translate(875.477 -20.161)" fill="#fddb3c"/>
  </g>
</svg>
